<svg xmlns="http://www.w3.org/2000/svg" version="1.1" xmlns:xlink="http://www.w3.org/1999/xlink" width="512" height="512" x="0" y="0" viewBox="0 0 410.936 410.936" style="enable-background:new 0 0 512 512" xml:space="preserve" class=""><g><path d="M397.936 205.467c0-50 12.999-79.998 12.999-79.998-16.733 0-47.463 48.994-57.055 65h-40.975c2.119-6.48 5.572-12.517 10.2-17.586a48.634 48.634 0 0 1 2.861-2.884l-13.594-14.67a68.69 68.69 0 0 0-4.042 4.073c-8 8.764-13.525 19.564-16.135 31.066h-34.76c2.611-11.518 8.141-22.332 16.148-31.104a68.789 68.789 0 0 1 4.046-4.075l-13.59-14.674a88.971 88.971 0 0 0-5.23 5.268c-11.36 12.446-18.869 28.067-21.751 44.584h-34.785c2.885-16.566 10.411-32.234 21.806-44.717a88.435 88.435 0 0 1 5.241-5.281l-13.594-14.67a108.875 108.875 0 0 0-6.424 6.473c-14.741 16.148-24.229 36.643-27.286 58.195H150v-55c-110 0-150 70-150 70s40 70 150 70v-55h31.982c3.467 24.566 15.449 47.711 33.745 64.667l13.596-14.668c-14.243-13.2-23.773-30.995-27.078-49.999h34.788c3.305 18.954 12.811 36.693 27.007 49.851l13.594-14.67c-10.136-9.394-17.179-21.804-20.22-35.181h34.764c3.04 13.363 10.074 25.758 20.195 35.139l13.596-14.668c-6.04-5.598-10.522-12.713-13.072-20.471h40.984c9.592 16.006 40.321 65 57.055 65 0 0-13-30-13-80zM70 205.469c-5.523 0-10-4.477-10-10s4.477-10 10-10c5.522 0 10 4.477 10 10s-4.478 10-10 10z" fill="#000000" opacity="1" data-original="#000000" class=""></path></g></svg>